<svg width="1920" height="802" viewBox="0 0 1920 802" fill="none" xmlns="http://www.w3.org/2000/svg">
<g clip-path="url(#clip0_172_376)">
<rect width="1920" height="802" fill="url(#paint0_linear_172_376)"/>
<rect x="1053.94" y="843.494" width="726.877" height="65.049" rx="32.5245" transform="rotate(-60 1053.94 843.494)" fill="#EAF4FB"/>
<rect x="1173.19" y="842.869" width="504.745" height="65.049" rx="32.5245" transform="rotate(-60 1173.19 842.869)" fill="#EAF4FB"/>
<rect x="1029" y="687.003" width="288.656" height="65.049" rx="32.5245" transform="rotate(-60 1029 687.003)" fill="#EAF4FB"/>
<rect x="1179.7" y="420.858" width="188.445" height="65.049" rx="32.5245" transform="rotate(-60 1179.7 420.858)" fill="#EAF4FB"/>
<path fill-rule="evenodd" clip-rule="evenodd" d="M216.783 899.534C211.945 907.914 214.816 918.63 223.197 923.469C231.577 928.307 242.293 925.436 247.132 917.055L425.4 608.285C430.239 599.905 427.367 589.189 418.987 584.35C410.606 579.512 399.891 582.383 395.052 590.764L216.783 899.534ZM281.029 899.197C276.19 907.578 279.062 918.294 287.442 923.132C295.822 927.97 306.538 925.099 311.377 916.719L428.097 714.554C432.935 706.174 430.064 695.458 421.683 690.619C413.303 685.781 402.587 688.652 397.749 697.032L281.029 899.197ZM209.764 839.165C201.383 834.326 198.512 823.61 203.35 815.23L263.581 710.908C268.419 702.527 279.135 699.656 287.515 704.494C295.896 709.333 298.767 720.049 293.929 728.429L233.698 832.751C228.86 841.132 218.144 844.003 209.764 839.165ZM284.533 671.854C279.695 680.234 282.566 690.95 290.946 695.788C299.327 700.627 310.043 697.755 314.881 689.375L348.119 631.806C352.957 623.425 350.086 612.709 341.706 607.871C333.325 603.032 322.609 605.904 317.771 614.284L284.533 671.854Z" fill="#EAF4FB"/>
</g>
<defs>
<linearGradient id="paint0_linear_172_376" x1="886.5" y1="802" x2="896.5" y2="-2.69099e-05" gradientUnits="userSpaceOnUse">
<stop stop-color="#F8FCFF"/>
<stop offset="1" stop-color="#FBFDFF" stop-opacity="0"/>
</linearGradient>
<clipPath id="clip0_172_376">
<rect width="1920" height="802" fill="white"/>
</clipPath>
</defs>
</svg>
