<svg width="35" height="44" viewBox="0 0 35 44" fill="none" xmlns="http://www.w3.org/2000/svg">
<path d="M32.0287 12.8759V19.3138L35.0063 22.1304V10.1397L17.7848 0L0 10.7031V15.2901L30.4192 30.3388L17.7848 38.2252L4.02371 30.3388V23.8203L0 21.3257V32.9944L17.7848 43.3756L33.7187 32.9944V28.166L4.02371 12.8759L17.7848 4.58703L32.0287 12.8759Z" fill="url(#paint0_linear_172_435)"/>
<path d="M10.7834 23.0964L6.27686 20.7627V28.8101L18.1066 35.0871L26.3954 30.0977L22.2107 28.1663L18.1066 30.0977L10.7834 26.1545V23.0964Z" fill="#3B3B3B"/>
<path d="M12.2323 15.2902L8.28906 12.9565L17.785 6.9209L28.1662 12.9565L24.1425 15.8535L17.785 12.0712L12.2323 15.2902Z" fill="#3B3B3B"/>
<defs>
<linearGradient id="paint0_linear_172_435" x1="7.08172" y1="38.6276" x2="32.753" y2="1.52901" gradientUnits="userSpaceOnUse">
<stop stop-color="#0C456A"/>
<stop offset="1" stop-color="#6DC2FF"/>
</linearGradient>
</defs>
</svg>
