<svg width="398" height="44" viewBox="0 0 398 44" fill="none" xmlns="http://www.w3.org/2000/svg">
<path d="M61.8311 31.3896V30.0469C63.6621 30.6979 65.6803 31.0234 67.8857 31.0234C71.5397 31.0234 73.3667 29.64 73.3667 26.873C73.3667 24.8385 72.1785 23.8213 69.8022 23.8213H66.2134C62.9663 23.8213 61.3428 22.3564 61.3428 19.4268C61.3428 16.0902 63.7231 14.4219 68.4839 14.4219C70.437 14.4219 72.3291 14.666 74.1602 15.1543V16.375C72.3291 15.8053 70.437 15.5205 68.4839 15.5205C64.5776 15.5205 62.6245 16.8226 62.6245 19.4268C62.6245 21.5426 63.8208 22.6006 66.2134 22.6006H69.8022C73.033 22.6006 74.6484 24.0247 74.6484 26.873C74.6484 30.3724 72.3942 32.1221 67.8857 32.1221C65.6803 32.1221 63.6621 31.8779 61.8311 31.3896ZM89.4067 14.5439V15.6426H79.2261V22.6006H88.9917V23.6992H79.2261V30.9014H89.5776V32H77.9443V14.5439H89.4067ZM94.4604 14.5439V30.9014H104.568V32H93.1787V14.5439H94.4604ZM109.036 14.5439V32H107.754V14.5439H109.036ZM113.564 32V14.5439H114.846L122.72 30.4985L130.105 14.5439H131.265V32H130.105V16.8999L123.171 32H122.122L114.724 16.7778V32H113.564ZM154.702 31.3896C153.115 31.8779 151.488 32.1221 149.819 32.1221C143.716 32.1221 140.664 29.0907 140.664 23.0278C140.664 17.2905 143.716 14.4219 149.819 14.4219C151.488 14.4219 153.115 14.666 154.702 15.1543V16.2529C153.115 15.7646 151.569 15.5205 150.063 15.5205C144.652 15.5205 141.946 18.0229 141.946 23.0278C141.946 28.3582 144.652 31.0234 150.063 31.0234C151.569 31.0234 153.115 30.7793 154.702 30.291V31.3896ZM158.279 32H156.912L164.81 14.5439H166.335L174.27 32H172.744L170.156 26.1406H162.332L162.71 25.042H169.68L165.493 15.5449L158.279 32ZM176.65 32V14.5439H178.298L189.956 29.8271V14.5439H191.116V32H190.078L177.81 15.9844V32H176.65ZM196.316 14.5439V32H195.034V14.5439H196.316ZM208.291 14.5439L199.978 22.8081L208.584 32H206.667L198.696 23.2354V22.4785L206.533 14.5439H208.291ZM210.903 25.2617V14.5439H212.185V25.2617C212.185 29.1029 214.097 31.0234 217.922 31.0234C221.747 31.0234 223.66 29.1029 223.66 25.2617V14.5439H224.941V25.2617C224.941 29.8353 222.602 32.1221 217.922 32.1221C213.243 32.1221 210.903 29.8353 210.903 25.2617ZM228.848 32V14.5439H236.05C239.207 14.5439 240.786 15.9396 240.786 18.731C240.786 21.1479 239.073 22.861 235.647 23.8701L241.543 32H239.785L233.987 23.9067V23.04C237.568 22.5111 239.358 21.1073 239.358 18.8286C239.358 16.729 238.186 15.6792 235.842 15.6792H230.129V32H228.848ZM255.227 14.5439V15.6426H249.246V32H247.964V15.6426H242.104V14.5439H255.227ZM257.156 32H255.789L263.687 14.5439H265.212L273.147 32H271.621L269.033 26.1406H261.208L261.587 25.042H268.557L264.37 15.5449L257.156 32ZM275.527 32V14.5439H282.729C285.887 14.5439 287.466 15.9396 287.466 18.731C287.466 21.1479 285.753 22.861 282.327 23.8701L288.223 32H286.465L280.667 23.9067V23.04C284.247 22.5111 286.038 21.1073 286.038 18.8286C286.038 16.729 284.866 15.6792 282.522 15.6792H276.809V32H275.527ZM290.457 32H289.089L296.987 14.5439H298.513L306.448 32H304.922L302.334 26.1406H294.509L294.888 25.042H301.858L297.671 15.5449L290.457 32ZM308.828 32V14.5439H310.476L322.134 29.8271V14.5439H323.293V32H322.256L309.988 15.9844V32H308.828Z" fill="#3C3C3C"/>
<path d="M32.0287 12.8759V19.3138L35.0063 22.1304V10.1397L17.7848 0L0 10.7031V15.2901L30.4192 30.3388L17.7848 38.2252L4.02371 30.3388V23.8203L0 21.3257V32.9944L17.7848 43.3756L33.7187 32.9944V28.166L4.02371 12.8759L17.7848 4.58703L32.0287 12.8759Z" fill="url(#paint0_linear_172_433)"/>
<path d="M10.7834 23.0964L6.27686 20.7627V28.8101L18.1066 35.0871L26.3954 30.0977L22.2107 28.1663L18.1066 30.0977L10.7834 26.1545V23.0964Z" fill="#3B3B3B"/>
<path d="M12.2323 15.2902L8.28906 12.9565L17.785 6.9209L28.1662 12.9565L24.1425 15.8535L17.785 12.0712L12.2323 15.2902Z" fill="#3B3B3B"/>
<defs>
<linearGradient id="paint0_linear_172_433" x1="7.08172" y1="38.6276" x2="32.753" y2="1.52901" gradientUnits="userSpaceOnUse">
<stop stop-color="#0C456A"/>
<stop offset="1" stop-color="#6DC2FF"/>
</linearGradient>
</defs>
</svg>
